<?xml version="1.0" encoding="utf-8"?>
<svg width="98" height="96" xmlns="http://www.w3.org/2000/svg">
  <path fill-rule="evenodd" clip-rule="evenodd" d="M 48.854 0.024 C 21.839 0.024 0 22.024 0 49.241 C 0 70.997 13.993 89.413 33.405 95.931 C 35.832 96.421 36.721 94.872 36.721 93.569 C 36.721 92.428 36.641 88.517 36.641 84.442 C 23.051 87.376 20.221 78.575 20.221 78.575 C 18.037 72.871 14.801 71.405 14.801 71.405 C 10.353 68.39 15.125 68.39 15.125 68.39 C 20.059 68.716 22.648 73.442 22.648 73.442 C 27.015 80.938 34.052 78.82 36.883 77.516 C 37.287 74.338 38.582 72.138 39.957 70.916 C 29.118 69.775 17.714 65.538 17.714 46.633 C 17.714 41.255 19.654 36.855 22.728 33.433 C 22.243 32.211 20.544 27.158 23.214 20.395 C 23.214 20.395 27.339 19.091 36.64 25.447 C 40.622 24.369 44.729 23.821 48.854 23.817 C 52.979 23.817 57.184 24.388 61.067 25.447 C 70.369 19.091 74.494 20.395 74.494 20.395 C 77.164 27.158 75.464 32.211 74.979 33.433 C 78.134 36.855 79.994 41.255 79.994 46.633 C 79.994 65.538 68.59 69.693 57.67 70.916 C 59.45 72.464 60.986 75.397 60.986 80.042 C 60.986 86.642 60.906 91.939 60.906 93.568 C 60.906 94.872 61.796 96.421 64.222 95.932 C 83.634 89.412 97.627 70.997 97.627 49.241 C 97.707 22.024 75.788 0.024 48.854 0.024 Z" style="fill: rgba(251, 152, 94, 0.7);"/>
</svg>